<mxfile host="app.diagrams.net" modified="2023-04-17T18:25:37.250Z" agent="Mozilla/5.0 (Windows NT 10.0; Win64; x64) AppleWebKit/537.36 (KHTML, like Gecko) Chrome/109.0.0.0 Safari/537.36" etag="TC_DYb2k72PRTxJhTtEr" version="21.1.8" type="device">
  <diagram name="Page-1" id="d1Dr_iZdJzY5FfgxTFlw">
    <mxGraphModel dx="1434" dy="804" grid="0" gridSize="10" guides="1" tooltips="1" connect="1" arrows="1" fold="1" page="1" pageScale="1" pageWidth="1169" pageHeight="1654" math="0" shadow="0">
      <root>
        <mxCell id="0" />
        <mxCell id="1" parent="0" />
        <mxCell id="5cxwrviQxcYlWO02m6j5-10" value="" style="edgeStyle=orthogonalEdgeStyle;rounded=0;orthogonalLoop=1;jettySize=auto;html=1;" edge="1" parent="1" source="5cxwrviQxcYlWO02m6j5-1" target="5cxwrviQxcYlWO02m6j5-3">
          <mxGeometry relative="1" as="geometry" />
        </mxCell>
        <mxCell id="5cxwrviQxcYlWO02m6j5-1" value="RTL-SDR Source" style="rounded=0;whiteSpace=wrap;html=1;fillColor=#f8cecc;strokeColor=#b85450;gradientColor=#ea6b66;" vertex="1" parent="1">
          <mxGeometry x="40" y="30" width="120" height="30" as="geometry" />
        </mxCell>
        <mxCell id="5cxwrviQxcYlWO02m6j5-12" value="" style="edgeStyle=orthogonalEdgeStyle;rounded=0;orthogonalLoop=1;jettySize=auto;html=1;" edge="1" parent="1" source="5cxwrviQxcYlWO02m6j5-2" target="5cxwrviQxcYlWO02m6j5-5">
          <mxGeometry relative="1" as="geometry" />
        </mxCell>
        <mxCell id="5cxwrviQxcYlWO02m6j5-2" value="Low Pass Filter" style="rounded=0;whiteSpace=wrap;html=1;fillColor=#f5f5f5;strokeColor=#666666;gradientColor=#b3b3b3;" vertex="1" parent="1">
          <mxGeometry x="320" y="30" width="120" height="30" as="geometry" />
        </mxCell>
        <mxCell id="5cxwrviQxcYlWO02m6j5-11" value="" style="edgeStyle=orthogonalEdgeStyle;rounded=0;orthogonalLoop=1;jettySize=auto;html=1;" edge="1" parent="1" source="5cxwrviQxcYlWO02m6j5-3" target="5cxwrviQxcYlWO02m6j5-2">
          <mxGeometry relative="1" as="geometry" />
        </mxCell>
        <mxCell id="5cxwrviQxcYlWO02m6j5-3" value="Rational Resampler" style="rounded=0;whiteSpace=wrap;html=1;fillColor=#d5e8d4;strokeColor=#82b366;gradientColor=#97d077;" vertex="1" parent="1">
          <mxGeometry x="180" y="30" width="120" height="30" as="geometry" />
        </mxCell>
        <mxCell id="5cxwrviQxcYlWO02m6j5-9" value="" style="edgeStyle=orthogonalEdgeStyle;rounded=0;orthogonalLoop=1;jettySize=auto;html=1;" edge="1" parent="1" source="5cxwrviQxcYlWO02m6j5-4" target="5cxwrviQxcYlWO02m6j5-6">
          <mxGeometry relative="1" as="geometry" />
        </mxCell>
        <mxCell id="5cxwrviQxcYlWO02m6j5-4" value="Rational Resampler" style="rounded=0;whiteSpace=wrap;html=1;fillColor=#d5e8d4;strokeColor=#82b366;gradientColor=#97d077;" vertex="1" parent="1">
          <mxGeometry x="600" y="30" width="120" height="30" as="geometry" />
        </mxCell>
        <mxCell id="5cxwrviQxcYlWO02m6j5-13" value="" style="edgeStyle=orthogonalEdgeStyle;rounded=0;orthogonalLoop=1;jettySize=auto;html=1;" edge="1" parent="1" source="5cxwrviQxcYlWO02m6j5-5" target="5cxwrviQxcYlWO02m6j5-4">
          <mxGeometry relative="1" as="geometry" />
        </mxCell>
        <mxCell id="5cxwrviQxcYlWO02m6j5-5" value="WBFM Receive" style="rounded=0;whiteSpace=wrap;html=1;fillColor=#dae8fc;strokeColor=#6c8ebf;gradientColor=#7ea6e0;" vertex="1" parent="1">
          <mxGeometry x="460" y="30" width="120" height="30" as="geometry" />
        </mxCell>
        <mxCell id="5cxwrviQxcYlWO02m6j5-8" value="" style="edgeStyle=orthogonalEdgeStyle;rounded=0;orthogonalLoop=1;jettySize=auto;html=1;" edge="1" parent="1" source="5cxwrviQxcYlWO02m6j5-6" target="5cxwrviQxcYlWO02m6j5-7">
          <mxGeometry relative="1" as="geometry" />
        </mxCell>
        <mxCell id="5cxwrviQxcYlWO02m6j5-6" value="Multiply Constant" style="rounded=0;whiteSpace=wrap;html=1;fillColor=#e6d0de;strokeColor=#996185;gradientColor=#d5739d;" vertex="1" parent="1">
          <mxGeometry x="740" y="30" width="120" height="30" as="geometry" />
        </mxCell>
        <mxCell id="5cxwrviQxcYlWO02m6j5-7" value="Audio Sink" style="rounded=0;whiteSpace=wrap;html=1;fillColor=#fff2cc;strokeColor=#d6b656;gradientColor=#ffd966;" vertex="1" parent="1">
          <mxGeometry x="880" y="30" width="80" height="30" as="geometry" />
        </mxCell>
        <mxCell id="5cxwrviQxcYlWO02m6j5-20" value="" style="edgeStyle=orthogonalEdgeStyle;rounded=0;orthogonalLoop=1;jettySize=auto;html=1;" edge="1" parent="1" source="5cxwrviQxcYlWO02m6j5-14" target="5cxwrviQxcYlWO02m6j5-15">
          <mxGeometry relative="1" as="geometry" />
        </mxCell>
        <mxCell id="5cxwrviQxcYlWO02m6j5-14" value="RTL-SDR Source" style="rounded=0;whiteSpace=wrap;html=1;fillColor=#f8cecc;strokeColor=#b85450;gradientColor=#ea6b66;" vertex="1" parent="1">
          <mxGeometry x="40" y="170" width="120" height="30" as="geometry" />
        </mxCell>
        <mxCell id="5cxwrviQxcYlWO02m6j5-21" value="" style="edgeStyle=orthogonalEdgeStyle;rounded=0;orthogonalLoop=1;jettySize=auto;html=1;" edge="1" parent="1" source="5cxwrviQxcYlWO02m6j5-15" target="5cxwrviQxcYlWO02m6j5-16">
          <mxGeometry relative="1" as="geometry" />
        </mxCell>
        <mxCell id="5cxwrviQxcYlWO02m6j5-15" value="Rational Resampler" style="rounded=0;whiteSpace=wrap;html=1;fillColor=#d5e8d4;strokeColor=#82b366;gradientColor=#97d077;" vertex="1" parent="1">
          <mxGeometry x="180" y="170" width="120" height="30" as="geometry" />
        </mxCell>
        <mxCell id="5cxwrviQxcYlWO02m6j5-22" value="" style="edgeStyle=orthogonalEdgeStyle;rounded=0;orthogonalLoop=1;jettySize=auto;html=1;" edge="1" parent="1" source="5cxwrviQxcYlWO02m6j5-16" target="5cxwrviQxcYlWO02m6j5-17">
          <mxGeometry relative="1" as="geometry" />
        </mxCell>
        <mxCell id="5cxwrviQxcYlWO02m6j5-16" value="Low Pass Filter" style="rounded=0;whiteSpace=wrap;html=1;fillColor=#f5f5f5;strokeColor=#666666;gradientColor=#b3b3b3;" vertex="1" parent="1">
          <mxGeometry x="320" y="170" width="120" height="30" as="geometry" />
        </mxCell>
        <mxCell id="5cxwrviQxcYlWO02m6j5-23" value="" style="edgeStyle=orthogonalEdgeStyle;rounded=0;orthogonalLoop=1;jettySize=auto;html=1;" edge="1" parent="1" source="5cxwrviQxcYlWO02m6j5-17" target="5cxwrviQxcYlWO02m6j5-18">
          <mxGeometry relative="1" as="geometry" />
        </mxCell>
        <mxCell id="5cxwrviQxcYlWO02m6j5-17" value="WBFM Receive PLL" style="rounded=0;whiteSpace=wrap;html=1;fillColor=#dae8fc;strokeColor=#6c8ebf;gradientColor=#7ea6e0;" vertex="1" parent="1">
          <mxGeometry x="460" y="170" width="120" height="30" as="geometry" />
        </mxCell>
        <mxCell id="5cxwrviQxcYlWO02m6j5-24" value="" style="edgeStyle=orthogonalEdgeStyle;rounded=0;orthogonalLoop=1;jettySize=auto;html=1;" edge="1" parent="1" source="5cxwrviQxcYlWO02m6j5-18" target="5cxwrviQxcYlWO02m6j5-19">
          <mxGeometry relative="1" as="geometry" />
        </mxCell>
        <mxCell id="5cxwrviQxcYlWO02m6j5-18" value="Multiply Constant" style="rounded=0;whiteSpace=wrap;html=1;fillColor=#e6d0de;gradientColor=#d5739d;strokeColor=#996185;" vertex="1" parent="1">
          <mxGeometry x="600" y="170" width="120" height="30" as="geometry" />
        </mxCell>
        <mxCell id="5cxwrviQxcYlWO02m6j5-19" value="Audio Sink" style="rounded=0;whiteSpace=wrap;html=1;fillColor=#fff2cc;strokeColor=#d6b656;gradientColor=#ffd966;" vertex="1" parent="1">
          <mxGeometry x="740" y="170" width="80" height="30" as="geometry" />
        </mxCell>
        <mxCell id="5cxwrviQxcYlWO02m6j5-25" value="Monophonic FM Receiver" style="text;html=1;strokeColor=none;fillColor=none;align=center;verticalAlign=middle;whiteSpace=wrap;rounded=0;" vertex="1" parent="1">
          <mxGeometry x="40" width="160" height="30" as="geometry" />
        </mxCell>
        <mxCell id="5cxwrviQxcYlWO02m6j5-26" value="Stereo FM Receiver" style="text;html=1;strokeColor=none;fillColor=none;align=center;verticalAlign=middle;whiteSpace=wrap;rounded=0;" vertex="1" parent="1">
          <mxGeometry x="40" y="140" width="130" height="30" as="geometry" />
        </mxCell>
      </root>
    </mxGraphModel>
  </diagram>
</mxfile>
